<svg xmlns="http://www.w3.org/2000/svg" xmlns:xlink="http://www.w3.org/1999/xlink" width="1500" zoomAndPan="magnify" viewBox="0 0 1125 374.999991" height="500" preserveAspectRatio="xMidYMid meet" version="1.0"><defs><clipPath id="dc76f999d9"><path d="M 101.050781 95.523438 L 284.707031 95.523438 L 284.707031 279.179688 L 101.050781 279.179688 Z M 101.050781 95.523438 " clip-rule="nonzero"/></clipPath><clipPath id="3bbfa3e77a"><path d="M 285 0 L 660 0 L 660 375 L 285 375 Z M 285 0 " clip-rule="nonzero"/></clipPath><clipPath id="45004a2e7a"><path d="M 0.367188 149.402344 L 76.890625 149.402344 L 76.890625 225.925781 L 0.367188 225.925781 Z M 0.367188 149.402344 " clip-rule="nonzero"/></clipPath><clipPath id="927905704a"><path d="M 660 95.523438 L 843.65625 95.523438 L 843.65625 279.179688 L 660 279.179688 Z M 660 95.523438 " clip-rule="nonzero"/></clipPath><clipPath id="f0b7496c63"><path d="M 868.4375 149.402344 L 944.878906 149.402344 L 944.878906 225.925781 L 868.4375 225.925781 Z M 868.4375 149.402344 " clip-rule="nonzero"/></clipPath><clipPath id="daf355a9f6"><rect x="0" width="945" y="0" height="375"/></clipPath></defs><g transform="matrix(1, 0, 0, 1, 90, 0)"><g clip-path="url(#daf355a9f6)"><g clip-path="url(#dc76f999d9)"><path fill="#ffffff" d="M 195.269531 144.742188 C 195.410156 146.023438 195.605469 147.300781 195.851562 148.566406 C 196.101562 149.832031 196.402344 151.085938 196.753906 152.328125 C 197.109375 153.570312 197.515625 154.792969 197.972656 156 C 198.429688 157.207031 198.9375 158.390625 199.496094 159.554688 C 200.054688 160.71875 200.660156 161.855469 201.3125 162.96875 C 201.96875 164.082031 202.667969 165.164062 203.414062 166.21875 C 204.160156 167.273438 204.949219 168.292969 205.78125 169.277344 C 206.613281 170.265625 207.488281 171.214844 208.398438 172.128906 C 209.3125 173.039062 210.261719 173.914062 211.25 174.746094 C 212.234375 175.578125 213.253906 176.367188 214.308594 177.113281 C 215.359375 177.859375 216.445312 178.558594 217.558594 179.210938 C 218.667969 179.867188 219.808594 180.472656 220.972656 181.03125 C 222.136719 181.589844 223.320312 182.097656 224.527344 182.554688 C 225.734375 183.011719 226.957031 183.417969 228.199219 183.773438 C 229.441406 184.125 230.695312 184.425781 231.960938 184.675781 C 233.226562 184.921875 234.503906 185.117188 235.785156 185.257812 C 248.222656 186.621094 264.277344 187.5 285 187.5 C 264.277344 187.5 248.222656 188.382812 235.785156 189.746094 C 234.503906 189.882812 233.226562 190.078125 231.960938 190.328125 C 230.695312 190.574219 229.441406 190.875 228.199219 191.230469 C 226.957031 191.582031 225.734375 191.988281 224.527344 192.445312 C 223.320312 192.90625 222.136719 193.414062 220.972656 193.96875 C 219.808594 194.527344 218.667969 195.132812 217.558594 195.789062 C 216.445312 196.441406 215.359375 197.144531 214.308594 197.890625 C 213.253906 198.636719 212.234375 199.425781 211.25 200.257812 C 210.261719 201.089844 209.3125 201.960938 208.398438 202.875 C 207.488281 203.785156 206.613281 204.738281 205.78125 205.722656 C 204.949219 206.710938 204.160156 207.730469 203.414062 208.78125 C 202.667969 209.835938 201.96875 210.917969 201.3125 212.03125 C 200.660156 213.144531 200.054688 214.28125 199.496094 215.445312 C 198.9375 216.609375 198.429688 217.796875 197.972656 219.003906 C 197.515625 220.207031 197.109375 221.433594 196.753906 222.675781 C 196.402344 223.914062 196.101562 225.167969 195.851562 226.4375 C 195.605469 227.703125 195.410156 228.976562 195.269531 230.261719 C 193.90625 242.695312 193.027344 258.75 193.027344 279.476562 C 193.027344 258.75 192.144531 242.695312 190.78125 230.261719 C 190.640625 228.976562 190.449219 227.703125 190.199219 226.4375 C 189.953125 225.167969 189.652344 223.914062 189.296875 222.675781 C 188.941406 221.433594 188.539062 220.207031 188.078125 219.003906 C 187.621094 217.796875 187.113281 216.609375 186.554688 215.445312 C 186 214.28125 185.390625 213.144531 184.738281 212.03125 C 184.082031 210.917969 183.382812 209.835938 182.636719 208.78125 C 181.890625 207.730469 181.101562 206.710938 180.269531 205.722656 C 179.4375 204.738281 178.566406 203.785156 177.652344 202.875 C 176.738281 201.960938 175.789062 201.089844 174.804688 200.257812 C 173.816406 199.425781 172.796875 198.636719 171.742188 197.890625 C 170.691406 197.144531 169.609375 196.445312 168.496094 195.789062 C 167.382812 195.136719 166.246094 194.527344 165.082031 193.972656 C 163.917969 193.414062 162.730469 192.90625 161.523438 192.445312 C 160.316406 191.988281 159.09375 191.582031 157.851562 191.230469 C 156.609375 190.875 155.355469 190.574219 154.089844 190.328125 C 152.824219 190.078125 151.550781 189.882812 150.265625 189.746094 C 137.828125 188.382812 121.773438 187.5 101.050781 187.5 C 121.773438 187.5 137.828125 186.621094 150.265625 185.257812 C 151.550781 185.117188 152.824219 184.921875 154.089844 184.675781 C 155.355469 184.425781 156.609375 184.125 157.851562 183.773438 C 159.09375 183.417969 160.316406 183.011719 161.523438 182.554688 C 162.730469 182.097656 163.917969 181.589844 165.082031 181.03125 C 166.246094 180.472656 167.382812 179.867188 168.496094 179.210938 C 169.609375 178.558594 170.691406 177.859375 171.742188 177.113281 C 172.796875 176.367188 173.816406 175.578125 174.804688 174.746094 C 175.789062 173.914062 176.738281 173.039062 177.652344 172.128906 C 178.566406 171.214844 179.4375 170.265625 180.269531 169.277344 C 181.101562 168.292969 181.890625 167.273438 182.636719 166.21875 C 183.382812 165.164062 184.082031 164.082031 184.738281 162.96875 C 185.390625 161.855469 186 160.71875 186.554688 159.554688 C 187.113281 158.390625 187.621094 157.207031 188.078125 156 C 188.539062 154.792969 188.941406 153.570312 189.296875 152.328125 C 189.652344 151.085938 189.953125 149.832031 190.199219 148.566406 C 190.449219 147.300781 190.640625 146.023438 190.78125 144.742188 C 192.144531 132.304688 193.027344 116.25 193.027344 95.523438 C 193.027344 116.25 193.90625 132.304688 195.269531 144.742188 Z M 195.269531 144.742188 " fill-opacity="1" fill-rule="nonzero"/></g><g clip-path="url(#3bbfa3e77a)"><path fill="#7e1515" d="M 509.488281 215.523438 C 534.714844 195 579.125 191.414062 660 187.472656 C 579.125 183.53125 534.722656 179.9375 509.488281 159.421875 C 517.984375 145.921875 532.035156 129.960938 551.652344 108.328125 C 530.019531 127.953125 514.058594 142.003906 500.558594 150.492188 C 480.035156 125.265625 476.449219 80.855469 472.507812 -0.015625 C 468.566406 80.855469 464.972656 125.257812 444.457031 150.492188 C 430.957031 141.996094 414.996094 127.945312 393.363281 108.328125 C 412.988281 129.960938 427.039062 145.921875 435.527344 159.421875 C 410.300781 179.945312 365.890625 183.53125 285.015625 187.472656 C 365.890625 191.414062 410.292969 195.007812 435.527344 215.523438 C 427.03125 229.023438 412.980469 244.988281 393.363281 266.617188 C 414.996094 246.992188 430.957031 232.941406 444.457031 224.453125 C 464.980469 249.679688 468.566406 294.09375 472.507812 374.964844 C 476.449219 294.09375 480.042969 249.6875 500.558594 224.453125 C 514.058594 232.949219 530.019531 247 551.652344 266.617188 C 532.027344 244.988281 517.976562 229.023438 509.488281 215.523438 Z M 509.488281 215.523438 " fill-opacity="1" fill-rule="nonzero"/></g><g clip-path="url(#45004a2e7a)"><path fill="#3a2e73" d="M 76.550781 187.492188 C 47.984375 192.753906 43.71875 197.015625 38.460938 225.585938 C 33.199219 197.015625 28.9375 192.753906 0.367188 187.492188 C 28.9375 182.234375 33.199219 177.972656 38.460938 149.402344 C 43.71875 177.972656 47.984375 182.234375 76.550781 187.492188 Z M 76.550781 187.492188 " fill-opacity="1" fill-rule="nonzero"/></g><g clip-path="url(#927905704a)"><path fill="#ffffff" d="M 754.21875 144.742188 C 754.359375 146.023438 754.554688 147.300781 754.800781 148.566406 C 755.050781 149.832031 755.351562 151.085938 755.703125 152.328125 C 756.058594 153.570312 756.464844 154.792969 756.921875 156 C 757.378906 157.207031 757.886719 158.390625 758.445312 159.554688 C 759.003906 160.71875 759.609375 161.855469 760.265625 162.96875 C 760.917969 164.082031 761.617188 165.164062 762.363281 166.21875 C 763.109375 167.273438 763.898438 168.292969 764.730469 169.277344 C 765.5625 170.265625 766.4375 171.214844 767.347656 172.128906 C 768.261719 173.039062 769.210938 173.914062 770.199219 174.746094 C 771.183594 175.578125 772.203125 176.367188 773.257812 177.113281 C 774.3125 177.859375 775.394531 178.558594 776.507812 179.210938 C 777.617188 179.867188 778.757812 180.472656 779.921875 181.03125 C 781.085938 181.589844 782.269531 182.097656 783.476562 182.554688 C 784.683594 183.011719 785.90625 183.417969 787.148438 183.773438 C 788.390625 184.125 789.644531 184.425781 790.910156 184.675781 C 792.175781 184.921875 793.453125 185.117188 794.734375 185.257812 C 807.171875 186.621094 823.226562 187.5 843.949219 187.5 C 823.226562 187.5 807.171875 188.382812 794.734375 189.746094 C 793.453125 189.882812 792.175781 190.078125 790.910156 190.328125 C 789.644531 190.574219 788.390625 190.875 787.148438 191.230469 C 785.90625 191.582031 784.683594 191.988281 783.476562 192.445312 C 782.269531 192.90625 781.085938 193.414062 779.921875 193.96875 C 778.757812 194.527344 777.617188 195.132812 776.507812 195.789062 C 775.394531 196.441406 774.3125 197.144531 773.257812 197.890625 C 772.203125 198.636719 771.183594 199.425781 770.199219 200.257812 C 769.210938 201.089844 768.261719 201.960938 767.347656 202.875 C 766.4375 203.785156 765.5625 204.738281 764.730469 205.722656 C 763.898438 206.710938 763.109375 207.730469 762.363281 208.78125 C 761.617188 209.835938 760.917969 210.917969 760.265625 212.03125 C 759.609375 213.144531 759.003906 214.28125 758.445312 215.445312 C 757.886719 216.609375 757.378906 217.796875 756.921875 219.003906 C 756.464844 220.207031 756.058594 221.433594 755.703125 222.675781 C 755.351562 223.914062 755.050781 225.167969 754.800781 226.4375 C 754.554688 227.703125 754.359375 228.976562 754.21875 230.261719 C 752.855469 242.695312 751.976562 258.75 751.976562 279.476562 C 751.976562 258.75 751.09375 242.695312 749.730469 230.261719 C 749.59375 228.976562 749.398438 227.703125 749.148438 226.4375 C 748.902344 225.167969 748.601562 223.914062 748.246094 222.675781 C 747.894531 221.433594 747.488281 220.207031 747.027344 219.003906 C 746.570312 217.796875 746.0625 216.609375 745.503906 215.445312 C 744.949219 214.28125 744.339844 213.144531 743.6875 212.03125 C 743.03125 210.917969 742.332031 209.835938 741.585938 208.78125 C 740.839844 207.730469 740.050781 206.710938 739.21875 205.722656 C 738.386719 204.738281 737.515625 203.785156 736.601562 202.875 C 735.6875 201.960938 734.738281 201.089844 733.753906 200.257812 C 732.765625 199.425781 731.746094 198.636719 730.695312 197.890625 C 729.640625 197.144531 728.558594 196.445312 727.445312 195.789062 C 726.332031 195.136719 725.195312 194.527344 724.03125 193.972656 C 722.867188 193.414062 721.679688 192.90625 720.472656 192.445312 C 719.265625 191.988281 718.042969 191.582031 716.800781 191.230469 C 715.5625 190.875 714.308594 190.574219 713.039062 190.328125 C 711.773438 190.078125 710.5 189.882812 709.214844 189.746094 C 696.777344 188.382812 680.726562 187.5 660 187.5 C 680.726562 187.5 696.777344 186.621094 709.214844 185.257812 C 710.5 185.117188 711.773438 184.921875 713.039062 184.675781 C 714.308594 184.425781 715.5625 184.125 716.800781 183.773438 C 718.042969 183.417969 719.265625 183.011719 720.472656 182.554688 C 721.679688 182.097656 722.867188 181.589844 724.03125 181.03125 C 725.195312 180.472656 726.332031 179.867188 727.445312 179.210938 C 728.558594 178.558594 729.640625 177.859375 730.691406 177.113281 C 731.746094 176.367188 732.765625 175.578125 733.753906 174.746094 C 734.738281 173.914062 735.6875 173.039062 736.601562 172.128906 C 737.515625 171.214844 738.386719 170.265625 739.21875 169.277344 C 740.050781 168.292969 740.839844 167.273438 741.585938 166.21875 C 742.332031 165.164062 743.03125 164.082031 743.6875 162.96875 C 744.339844 161.855469 744.949219 160.71875 745.503906 159.554688 C 746.0625 158.390625 746.570312 157.207031 747.027344 156 C 747.488281 154.792969 747.894531 153.570312 748.246094 152.328125 C 748.601562 151.085938 748.902344 149.832031 749.148438 148.566406 C 749.398438 147.300781 749.59375 146.023438 749.730469 144.742188 C 751.09375 132.304688 751.976562 116.25 751.976562 95.523438 C 751.976562 116.25 752.855469 132.304688 754.21875 144.742188 Z M 754.21875 144.742188 " fill-opacity="1" fill-rule="nonzero"/></g><g clip-path="url(#f0b7496c63)"><path fill="#3a2e73" d="M 944.621094 187.492188 C 916.050781 192.753906 911.789062 197.015625 906.527344 225.585938 C 901.269531 197.015625 897.003906 192.753906 868.4375 187.492188 C 897.003906 182.234375 901.269531 177.972656 906.527344 149.402344 C 911.789062 177.972656 916.050781 182.234375 944.621094 187.492188 Z M 944.621094 187.492188 " fill-opacity="1" fill-rule="nonzero"/></g></g></g></svg>